<?xml version="1.0" encoding="utf-8"?>
<!-- Generator: Adobe Illustrator 24.1.1, SVG Export Plug-In . SVG Version: 6.00 Build 0)  -->
<svg version="1.1" id="Capa_1" xmlns="http://www.w3.org/2000/svg" xmlns:xlink="http://www.w3.org/1999/xlink" x="0px" y="0px"
	 viewBox="0 0 1786.1 1786" style="enable-background:new 0 0 1786.1 1786;" xml:space="preserve">
<style type="text/css">
	.st0{fill:#0E8D61;stroke:#002433;stroke-width:46.304;stroke-linecap:round;stroke-linejoin:round;}
	.st1{fill:#43B889;stroke:#002433;stroke-width:46.304;stroke-linecap:round;stroke-linejoin:round;}
	.st2{fill:#61C097;}
	.st3{fill:none;stroke:#0E8D61;stroke-width:46.304;stroke-linecap:round;stroke-linejoin:round;}
	.st4{fill:#167C52;stroke:#002433;stroke-width:46.304;stroke-linecap:round;stroke-linejoin:round;}
	.st5{fill:#176041;stroke:#002433;stroke-width:46.304;stroke-linecap:round;stroke-linejoin:round;}
	.st6{fill:#00754A;stroke:#002433;stroke-width:46.304;stroke-linecap:round;stroke-linejoin:round;}
</style>
<path class="st0" d="M1762.9,893c0,480.4-389.5,869.9-869.9,869.9c-480.4,0-869.9-389.5-869.9-869.9S412.6,23.2,893,23.2
	C1373.4,23.2,1762.9,412.6,1762.9,893z"/>
<path class="st1" d="M1689.1,893c0,439.7-356.4,796.1-796,796.1S97,1332.7,97,893C97,453.4,453.4,97,893,97S1689.1,453.4,1689.1,893
	z"/>
<path class="st2" d="M523.1,450c-38.1-34.5-83.2-64.3-121.9-48.8c-57.9,23.2-94.7,85.3-124.3,136.2c-25.2,43.3-66.1,94.7-63.5,147.5
	c1.2,24.3,17.5,52.7,40.1,63.8c45.4,22.4,98.6,27.6,148.4,30c35.8,1.8,81.2,13.1,116.3,4.7c49.4-11.7,73.3-58.6,85.7-90
	c10.7-27.1,58.6-65.7,47.8-102c-9.4-31.5-45.5-56.9-67.5-79.5C569.2,496.4,547.6,472.2,523.1,450z"/>
<path class="st2" d="M1343.5,1107.8c-32.3-14.4-62.1-34.9-96.3-44.9c-38-11.2-62.9,0.3-88.1,28.6c-54.1,60.5-138.8,94.6-190.1,158.1
	c-32.9,40.6,4.3,110.4,18.2,157.2c16.8,56.6,37.5,131.5,105.5,143.3c60.3,10.4,106.1-25.8,155.7-54
	c51.8-29.4,107.1-85.9,152.1-125.3c40.5-35.4,100-93.4,82.4-154C1466.4,1160,1392.9,1129.8,1343.5,1107.8z"/>
<path class="st3" d="M893,1628.9c-406.4,0-735.9-329.5-735.9-735.9"/>
<path class="st3" d="M893,157.1c406.4,0,735.9,329.5,735.9,735.9"/>
<path class="st3" d="M893,1567c-372.3,0-674-301.8-674-674.1"/>
<path class="st3" d="M893,219c372.2,0,674,301.8,674,674"/>
<path class="st3" d="M893,1496c-333,0-603-270-603-603"/>
<path class="st3" d="M893,290c333.1,0,603,270,603,603"/>
<path class="st3" d="M893,1426.3c-294.6,0-533.3-238.8-533.3-533.3"/>
<path class="st3" d="M893,359.7c294.5,0,533.3,238.8,533.3,533.3"/>
<path class="st3" d="M893,1361.8c-258.9,0-468.8-209.9-468.8-468.8"/>
<path class="st3" d="M893,424.2c258.9,0,468.8,209.9,468.8,468.8"/>
<path class="st3" d="M893,1292.2c-220.5,0-399.2-178.7-399.2-399.2"/>
<path class="st3" d="M893,493.8c220.5,0,399.2,178.7,399.2,399.2"/>
<path class="st3" d="M893,1226.5c-184.2,0-333.5-149.3-333.5-333.5"/>
<path class="st3" d="M893,559.5c184.2,0,333.5,149.3,333.5,333.5"/>
<path class="st4" d="M1166.3,893c0,150.9-122.3,273.3-273.3,273.3S619.7,1043.9,619.7,893c0-150.9,122.4-273.3,273.3-273.3
	S1166.3,742.1,1166.3,893z"/>
<path class="st5" d="M1098.8,893c0,113.6-92.1,205.7-205.7,205.7S687.3,1006.6,687.3,893S779.4,687.3,893,687.3
	S1098.8,779.4,1098.8,893z"/>
<path class="st6" d="M994.1,893c0,55.8-45.3,101.1-101.1,101.1c-55.8,0-101.1-45.3-101.1-101.1S837.2,791.9,893,791.9c0,0,0,0,0,0
	C948.9,791.9,994.1,837.2,994.1,893z"/>
</svg>
